<?xml version="1.0" encoding="utf-8"?>
<!-- Generator: Adobe Illustrator 18.1.1, SVG Export Plug-In . SVG Version: 6.00 Build 0)  -->
<svg version="1.1" id="Layer_1" xmlns="http://www.w3.org/2000/svg" xmlns:xlink="http://www.w3.org/1999/xlink" x="0px" y="0px"
	 viewBox="405 281.7 31.8 31.8" enable-background="new 405 281.7 31.8 31.8" xml:space="preserve">
<g>
	<g>
		<g>
			<circle fill="#2D61AB" cx="420.9" cy="305.7" r="1.2"/>
			<path fill="#2D61AB" d="M424.4,289h-6.9c-0.4,0-0.7,0.3-0.7,0.7v13.1c0,0.4,0.3,0.7,0.7,0.7h6.9c0.4,0,0.7-0.3,0.7-0.7v-13.1
				C425.1,289.3,424.8,289,424.4,289z"/>
			<path fill="#2D61AB" d="M420.9,281.7c-8.8,0-15.9,7.1-15.9,15.9s7.1,15.9,15.9,15.9c8.8,0,15.9-7.1,15.9-15.9
				S429.7,281.7,420.9,281.7z M427.1,305.5c0,1.2-1,2.2-2.2,2.2h-8c-1.2,0-2.2-1-2.2-2.2v-15.8c0-1.2,1-2.2,2.2-2.2h8
				c1.2,0,2.2,1,2.2,2.2V305.5z"/>
		</g>
	</g>
</g>
</svg>
